<?xml version="1.0" encoding="UTF-8" standalone="no"?>
<!-- Created with Inkscape (http://www.inkscape.org/) -->

<svg
   version="1.1"
   id="svg1"
   width="980"
   height="980"
   viewBox="0 0 980 980"
   sodipodi:docname="icone-musculacao.svg"
   inkscape:version="1.4.2 (f4327f4, 2025-05-13)"
   xmlns:inkscape="http://www.inkscape.org/namespaces/inkscape"
   xmlns:sodipodi="http://sodipodi.sourceforge.net/DTD/sodipodi-0.dtd"
   xmlns="http://www.w3.org/2000/svg"
   xmlns:svg="http://www.w3.org/2000/svg">
  <defs
     id="defs1" />
  <sodipodi:namedview
     id="namedview1"
     pagecolor="#ffffff"
     bordercolor="#000000"
     borderopacity="0.25"
     inkscape:showpageshadow="2"
     inkscape:pageopacity="0.0"
     inkscape:pagecheckerboard="0"
     inkscape:deskcolor="#d1d1d1"
     inkscape:zoom="0.7622449"
     inkscape:cx="489.34404"
     inkscape:cy="490"
     inkscape:window-width="1920"
     inkscape:window-height="986"
     inkscape:window-x="-11"
     inkscape:window-y="-11"
     inkscape:window-maximized="1"
     inkscape:current-layer="g1" />
  <g
     inkscape:groupmode="layer"
     inkscape:label="Image"
     id="g1">
    <path
       style="fill:#aa0000"
       d="m 341.8098,721.96926 c -1.79253,-1.09292 -4.18449,-3.45373 -5.31547,-5.24626 -1.92095,-3.04456 -2.02545,-4.37842 -1.58733,-20.25914 0.29432,-10.66817 1.45845,-23.89052 3.12552,-35.5 1.96359,-13.67445 2.56535,-21.36925 2.30701,-29.5 -0.33145,-10.43157 -0.58671,-11.56843 -4.93973,-22 -17.2383,-41.30988 -18.65701,-45.67983 -22.81045,-70.26158 -2.97331,-17.5973 -7.34592,-29.05645 -16.11743,-42.23842 -6.29971,-9.46729 -5.74367,-9.25778 -18.67966,-7.03831 -27.82015,4.77317 -56.00241,5.11752 -83.72332,1.02297 -25.14843,-3.71458 -39.1268,-7.66067 -58.43952,-16.49747 -8.98563,-4.1115 -15.61679,-6.31969 -25.82523,-8.59986 -15.78254,-3.5252 -24.18822,-7.1348 -30.19922,-12.96828 -8.58199,-8.32853 -10.54524,-17.46407 -10.51287,-48.91905 0.0202,-19.61756 0.31363,-23.82676 2.29064,-32.85655 8.08491,-36.92698 25.90565,-68.89156 62.28217,-111.71383 20.85115,-24.54587 38.71784,-45.16288 44.26877,-51.08333 10.95871,-11.68819 30.68377,-23.08777 52.6681,-30.43814 17.11166,-5.72121 28.60127,-7.98372 43.75811,-8.61674 l 13.29094,-0.55509 7.68201,3.79666 c 6.10699,3.01824 9.74945,5.86439 17.76573,13.88184 15.31088,15.3131 20.08015,26.25388 17.47141,40.07969 -2.31259,12.25623 -11.85653,24.1198 -27.87774,34.65339 -9.36658,6.15831 -17.9201,8.8521 -28.10779,8.8521 -6.12037,0 -8.91618,0.52092 -13.14467,2.44912 -6.26802,2.85824 -17.58859,4.88206 -22.33153,3.99228 -1.82065,-0.34156 -3.54073,-0.2431 -3.8224,0.21879 -0.28167,0.4619 -1.47875,8.03981 -2.66018,16.83981 -1.18142,8.8 -3.02867,21.625 -4.10499,28.5 -1.07632,6.875 -1.95578,13.00363 -1.95435,13.61917 0.002,0.65707 3.73424,1.59774 9.04028,2.27821 8.70575,1.11647 22.76093,4.94398 27.97042,7.61692 2.3221,1.19144 2.98954,0.92422 9,-3.60325 11.34432,-8.54527 27.35461,-15.23498 42.99191,-17.96365 16.63981,-2.9036 41.24866,-1.01983 58.58127,4.4843 l 7.74921,2.46083 6.78824,-5.85698 c 3.73353,-3.22133 7.71806,-6.50825 8.85452,-7.30425 l 2.06628,-1.44729 -3.46773,-10.392 c -4.08038,-12.22795 -9.62821,-36.10682 -12.63701,-54.39201 -1.75819,-10.6849 -2.04427,-15.58223 -1.60646,-27.5 0.73483,-20.00307 4.45499,-31.95525 14.59273,-46.88373 17.88192,-26.3323 43.72648,-39.11627 79.07895,-39.11627 28.67314,0 49.43107,7.64142 66.55426,24.5 12.32502,12.13454 19.91668,24.53391 24.56392,40.11992 3.25487,10.91623 3.66982,32.33317 0.94704,48.88008 -3.07036,18.65927 -8.5985,42.35714 -12.68029,54.3575 l -3.52299,10.3575 2.11555,1.48179 c 1.16356,0.81498 5.19141,4.13568 8.95079,7.37932 l 6.83524,5.89753 5.71571,-1.96649 c 14.93648,-5.13891 36.21496,-7.6316 51.51453,-6.03475 22.52972,2.35148 37.28129,8.07188 55.75571,21.62107 2.13089,1.56281 2.81618,1.46166 13,-1.91881 5.91279,-1.96272 14.96352,-4.1078 20.11272,-4.76684 l 9.36219,-1.19825 -0.55014,-3.60479 c -1.29181,-8.46458 -4.60187,-31.54217 -6.1826,-43.10478 -0.93989,-6.875 -1.94152,-12.88598 -2.22586,-13.35772 -0.28433,-0.47175 -2.3029,-0.57215 -4.4857,-0.2231 -5.16114,0.8253 -14.59866,-0.92192 -21.52483,-3.985 -4.29131,-1.89782 -7.21624,-2.43418 -13.27435,-2.43418 -10.31737,0 -18.97114,-2.76786 -28.42667,-9.0921 -11.36907,-7.6041 -20.60914,-17.1167 -24.63385,-25.3604 -3.00102,-6.14692 -3.39583,-7.89062 -3.40735,-15.04889 -0.0119,-7.40673 0.31878,-8.76801 3.88236,-15.98115 5.55209,-11.23814 20.81054,-26.58171 31.81366,-31.99115 l 7.70906,-3.78999 13.29094,0.50285 c 21.01287,0.795 44.89401,7.27531 66.19429,17.96229 17.80523,8.9334 25.79773,15.20183 37.99431,29.79854 3.90629,4.675 13.7918,16.15 21.96778,25.5 48.49151,55.45448 68.15661,88.28238 76.67671,128 4.0336,18.80342 3.7356,55.95228 -0.5634,70.23701 -2.783,9.24698 -10.0414,16.37828 -20.8847,20.51883 -2.8017,1.06985 -10.8521,3.24747 -17.8897,4.83915 -8.9773,2.03037 -16.2884,4.48968 -24.50002,8.24132 -16.99841,7.76607 -27.51906,11.21272 -43.20432,14.15406 -35.48308,6.65388 -65.43779,7.10638 -99.01057,1.49565 l -11.48943,-1.92014 -3.20328,3.57963 c -7.84186,8.76317 -16.35852,26.73568 -18.84236,39.76262 -0.74372,3.90053 -2.33077,12.26687 -3.52679,18.59187 -2.78606,14.73379 -7.11639,27.9632 -14.8933,45.5 -9.59108,21.62769 -11.03427,26.63255 -11.03427,38.2658 0,5.45224 1.16982,17.97289 2.5996,27.82368 1.63024,11.23194 2.77331,24.24958 3.06547,34.91052 0.43512,15.87785 0.33014,17.21513 -1.59046,20.25914 -1.13098,1.79253 -3.52294,4.15334 -5.31547,5.24626 -3.20814,1.95603 -5.30114,1.98712 -133.75914,1.98712 -128.458,0 -130.551,-0.0311 -133.75914,-1.98712 z m 264.45381,-8.60916 2.60377,-2.60377 -0.62957,-13.64623 c -0.34626,-7.50543 -1.7501,-21.42262 -3.11965,-30.92709 -5.7621,-39.98813 -5.57536,-41.30837 11.40569,-80.63908 6.23344,-14.43762 10.20253,-28.202 13.05392,-45.26964 3.70369,-22.16935 10.15664,-37.96495 21.68169,-53.07266 3.04703,-3.99423 5.91498,-7.49396 6.37322,-7.77716 0.45824,-0.28321 8.16886,0.65061 17.13471,2.07516 29.51372,4.68931 55.04564,4.996 81.64224,0.98069 26.09496,-3.93958 35.76057,-6.74057 57.44499,-16.64697 7.48919,-3.42139 15.12516,-5.97439 23.63856,-7.90324 14.9895,-3.39612 19.6078,-4.96008 24.7281,-8.37401 8.0536,-5.36964 10.6125,-13.31292 11.9508,-37.0972 1.8147,-32.25207 -6.9597,-65.38088 -25.492,-96.24794 -12.0793,-20.11905 -25.61946,-37.73864 -53.61114,-69.76336 -7.7,-8.80942 -16.21432,-18.70961 -18.92072,-22.00043 -8.49041,-10.32386 -13.84993,-15.52009 -21.09453,-20.45183 -20.96259,-14.27023 -51.98986,-24.77191 -78.7164,-26.64285 -9.59288,-0.67154 -9.82817,-0.63429 -16.5,2.61151 -9.33105,4.5395 -23.55823,18.78069 -28.21777,28.24556 -3.01985,6.13417 -3.27621,7.3548 -2.83515,13.49914 0.62692,8.73372 3.26463,13.81602 11.2584,21.69261 13.03347,12.8424 22.4516,17.36908 37.27985,17.91798 8.06745,0.29864 10.77986,0.83914 15.74632,3.13774 7.4842,3.46388 17.94789,4.42105 24.26094,2.21929 2.34352,-0.81734 4.4767,-1.13697 4.7404,-0.71029 1.12053,1.81306 3.61441,16.21734 6.51018,37.60185 1.70525,12.59279 3.98307,26.8638 5.06183,31.71337 1.99539,8.97022 1.90275,10.99441 -0.46161,10.08712 -2.00726,-0.77026 -20.72559,1.35665 -28.36377,3.2229 -3.71138,0.9068 -10.07026,3.15995 -14.13084,5.00698 l -7.38287,3.35825 -3.6562,-3.30316 c -9.59637,-8.66973 -24.49077,-16.32702 -38.70107,-19.89642 -7.32282,-1.83937 -11.67825,-2.23202 -24.87699,-2.24268 -17.41591,-0.0141 -24.8155,1.14836 -40.31905,6.33392 l -8.6529,2.89419 -5.93138,-5.49142 c -3.26226,-3.02028 -9.23107,-7.97496 -13.26403,-11.0104 -4.03295,-3.03545 -7.33264,-5.7074 -7.33264,-5.93767 0,-0.23027 0.89853,-2.17994 1.99674,-4.3326 4.8515,-9.50973 8.7124,-23.27528 13.97363,-49.82124 7.17794,-36.21687 6.15392,-54.95377 -4.05002,-74.1045 -16.13045,-30.2736 -45.25489,-45.70773 -82.42035,-43.67761 -28.47122,1.5552 -47.48679,10.98519 -63.71524,31.59695 -12.6571,16.07579 -18.34379,37.54809 -15.95137,60.23052 2.7017,25.61464 11.67855,63.05184 18.16987,75.77588 1.09821,2.15266 1.99674,4.10233 1.99674,4.3326 0,0.23027 -3.29969,2.90222 -7.33264,5.93767 -4.03296,3.03544 -10.02761,8.01405 -13.32146,11.06357 l -5.98881,5.54458 -8.42854,-2.90435 c -15.25048,-5.2551 -22.01554,-6.33352 -39.92855,-6.36501 -13.77298,-0.0242 -17.96714,0.3376 -25.37699,2.18917 -14.22366,3.55421 -29.09129,11.20299 -38.766,19.94352 l -3.72113,3.36182 -4.26984,-2.17831 c -10.24042,-5.22427 -22.85963,-8.35213 -38.19315,-9.46672 l -9.82711,-0.71434 0.66968,-2.6253 c 1.87399,-7.34644 4.5725,-23.42014 6.48454,-38.6253 2.09651,-16.67211 5.36518,-35.66383 6.43644,-37.39715 0.29792,-0.48205 2.4591,-0.20773 4.80262,0.60961 6.31305,2.20176 16.77674,1.24459 24.26094,-2.21929 4.96646,-2.2986 7.67887,-2.8391 15.74632,-3.13774 14.77361,-0.54688 23.4492,-4.67602 36.90077,-17.56288 8.19502,-7.85098 10.99985,-13.16485 11.63748,-22.04771 0.44066,-6.13883 0.18284,-7.37055 -2.82581,-13.5 -4.03119,-8.21266 -18.58981,-23.20011 -26.95876,-27.75283 -5.22226,-2.84092 -6.05548,-2.98543 -16.5,-2.8617 -19.41153,0.22995 -44.85644,7.31413 -66.69077,18.56754 -12.92745,6.6628 -21.87238,13.49142 -29.35611,22.41065 -2.71881,3.24033 -12.15436,14.2165 -20.96789,24.3915 -22.34157,25.79279 -30.1122,35.11657 -37.91938,45.49848 -23.86179,31.73118 -36.7822,58.91659 -42.29978,89.00152 -3.12758,17.05333 -1.87234,53.27376 2.1833,63 1.9413,4.65564 8.47634,10.32851 14.49036,12.57864 3.00406,1.12396 11.14315,3.32456 18.08685,4.89022 8.76422,1.97614 16.11844,4.44603 24.04917,8.07684 17.3034,7.92177 27.8653,11.33323 44.58174,14.39979 33.86643,6.21263 59.97472,6.51457 94.14406,1.08875 8.96585,-1.42371 16.67647,-2.35684 17.13471,-2.07363 1.88238,1.16337 12.13536,15.49692 15.50138,21.67074 5.75025,10.54691 9.22669,21.41042 12.47838,38.99371 3.77207,20.39717 6.75088,30.69016 13.21007,45.64613 16.89372,39.11669 17.10352,40.59742 11.36747,80.22881 -1.39308,9.625 -2.81617,23.64081 -3.16243,31.14624 l -0.62957,13.64623 2.60377,2.60377 2.60376,2.60376 H 475.56894 603.65985 Z M 356.56894,695.6808 c 0,-3.45569 1.35,-16.30399 3,-28.55178 3.58835,-26.636 3.8969,-41.33837 1.09728,-52.2848 -1.0465,-4.09176 -5.28453,-15.1337 -9.41785,-24.53763 -10.51623,-23.92602 -12.81992,-31.47659 -17.21923,-56.43752 -3.4767,-19.72621 -9.20326,-34.19919 -19.67133,-49.71621 l -4.93214,-7.311 4.10476,0.311 c 4.08229,0.3093 4.12273,0.35242 7.38737,7.87685 10.58801,24.40358 26.54819,39.10411 47.15114,43.42975 9.32134,1.95704 34.76513,1.93953 49.81582,-0.0343 13.09865,-1.71782 28.29308,-5.31003 34.98909,-8.27199 5.45538,-2.41317 6.88483,-6.11318 3.90815,-10.11594 -2.60519,-3.50321 -4.91352,-3.62427 -13.58333,-0.71237 -13.41528,4.50574 -31.09722,6.9424 -51.12973,7.04595 -14.77419,0.0764 -19.07527,-0.23468 -24,-1.73563 -18.37802,-5.60121 -29.23248,-18.31283 -38.99876,-45.67132 -7.54635,-21.13973 -13.20997,-33.61245 -22.01395,-48.48027 -11.19063,-18.89831 -15.06175,-23.16661 -19.90778,-21.95033 -5.71168,1.43354 -5.97806,6.84079 -0.70877,14.38716 8.94969,12.81718 27.21578,48.29025 25.66472,49.84131 -0.24263,0.24263 -4.33699,0.83603 -9.09858,1.31866 -4.76159,0.48264 -17.27031,2.26634 -27.79716,3.9638 -31.46912,5.07439 -55.99895,5.02917 -86.63972,-0.15972 -16.44677,-2.7852 -27.62031,-6.1921 -42.77973,-13.04388 -14.84782,-6.71093 -18.67525,-7.98686 -32.47754,-10.82679 -11.14375,-2.29291 -17.98357,-5.20929 -19.56216,-8.34095 -3.23632,-6.42032 -4.24879,-38.57339 -1.70794,-54.23881 6.02286,-37.13347 24.03448,-68.63278 68.02737,-118.96853 7.7,-8.81018 18.93268,-21.82322 24.96152,-28.91786 6.02883,-7.09464 13.62267,-14.85838 16.8752,-17.25275 18.06444,-13.29829 53.77206,-25.31815 75.24184,-25.32785 6.24082,-0.003 7.63073,0.36256 11.74429,3.08727 6.08975,4.03368 16.02253,14.92583 18.75099,20.56208 3.82083,7.89277 0.91064,14.15707 -10.95883,23.5893 -10.32349,8.2037 -14.27111,9.75816 -24.78133,9.75816 -7.16529,0 -9.70474,0.48342 -16.16709,3.07764 -8.34342,3.34935 -16.12144,4.07814 -20.23953,1.89641 -4.99875,-2.64828 -9.07617,-6.39516 -10.39549,-9.55274 -2.27557,-5.4462 -7.13631,-6.67371 -11.02565,-2.78437 -2.33857,2.33857 -1.85751,8.38138 1.00227,12.58992 l 2.50819,3.69113 -1.95874,7.29101 c -2.53411,9.43273 -3.51122,15.18053 -6.56435,38.61453 -6.01131,46.13923 -13.63199,65.0036 -35.00765,86.65854 -5.74194,5.81697 -7.48564,8.23854 -7.48564,10.3957 0,3.63976 2.80926,6.12223 6.92813,6.12223 6.49487,0 25.22764,-22.08468 33.73398,-39.77011 l 3.61036,-7.50624 12.61376,0.58806 c 6.93758,0.32342 15.53877,1.30427 19.11377,2.17965 9.14632,2.23958 21.47446,8.53391 28.33097,14.46482 6.34257,5.48636 8.25608,6.00855 11.72491,3.19965 3.2023,-2.59306 3.03153,-7.41138 -0.38921,-10.98187 -1.46667,-1.53087 -2.66667,-3.04221 -2.66667,-3.35853 0,-1.13727 10.74782,-8.65928 16.563,-11.59184 19.15644,-9.66051 43.91946,-11.4286 67.53965,-4.82235 17.13103,4.79132 27.33994,10.1696 47.24708,24.89084 18.6607,13.79949 33.11573,19.70792 48.21565,19.70792 6.07193,0 9.43462,-2.23742 9.43462,-6.27749 0,-4.67443 -2.49512,-6.51598 -9.75103,-7.19682 -15.7863,-1.48127 -23.37388,-4.7451 -39.74897,-17.09821 -5.5,-4.14911 -12.60965,-9.1387 -15.79923,-11.08797 -3.18958,-1.94927 -5.62833,-4.05682 -5.41946,-4.68345 0.46179,-1.38537 15.52863,-13.6812 19.1189,-15.60266 2.44506,-1.30855 2.86001,-1.127 8.36192,3.65841 8.65111,7.52451 21.1968,15.75498 27.75618,18.20916 11.30507,4.22976 27.59571,5.16291 38.30819,2.19433 11.04893,-3.06182 21.35218,-9.18593 34.43703,-20.46892 5.32868,-4.59489 5.94454,-4.87298 8.16263,-3.6859 3.68318,1.97118 19.57384,14.98519 19.57384,16.03043 0,0.50863 -1.94387,2.06397 -4.31971,3.4563 -2.37584,1.39234 -9.46334,6.35814 -15.75,11.03511 -17.85468,13.28302 -25.00793,16.45414 -40.79137,18.08326 -6.97585,0.72003 -10.13892,2.82456 -10.13892,6.74586 0,4.25261 3.45024,6.68856 9.47358,6.68856 14.78613,0 31.07333,-6.62493 48.02642,-19.53508 24.14183,-18.38452 40.73754,-25.58718 65.75339,-28.53747 22.17851,-2.61565 47.72174,4.28339 62.698,16.93428 l 3.4514,2.91549 -3.2014,3.64619 c -1.76076,2.0054 -3.20139,4.55098 -3.20139,5.65684 0,2.57469 4.31607,6.91975 6.87358,6.91975 1.08047,0 4.58842,-2.25027 7.79545,-5.0006 12.60481,-10.80979 30.8923,-16.95964 50.51119,-16.98626 l 9.68023,-0.0131 3.56011,7.40177 c 5.38286,11.19142 12.81685,21.6749 22.05503,31.10219 7.257,7.40555 8.76772,8.49604 11.77003,8.49604 4.07495,0 6.75438,-2.50782 6.75438,-6.32179 0,-1.965 -1.8445,-4.51247 -7.02738,-9.70565 -21.33942,-21.38184 -30.05592,-42.7668 -35.44997,-86.9726 -2.24018,-18.35898 -4.2312,-30.10982 -6.57258,-38.791 l -1.96645,-7.29101 2.50819,-3.69113 c 2.45621,-3.61464 3.31866,-9.4672 1.74288,-11.82716 -1.28849,-1.92968 -5.02836,-3.41439 -6.91225,-2.74411 -2.89,1.02824 -5.32244,3.50093 -5.32244,5.4105 0,1.93485 -4.5389,6.12698 -9.29889,8.58847 -4.87752,2.52227 -11.27928,2.05958 -20.41885,-1.47578 -6.73275,-2.60436 -9.63702,-3.17878 -16.07186,-3.17878 -10.34551,0 -15.29259,-1.82583 -24.2149,-8.93703 -13.04337,-10.39575 -15.95082,-16.39236 -11.95245,-24.6519 2.81385,-5.81265 12.49801,-16.26638 18.83738,-20.33434 4.27118,-2.74081 5.61923,-3.07673 12.34704,-3.07673 20.20776,0 55.55138,11.8172 73.36758,24.53058 4.24619,3.03001 11.27533,10.28746 21.07348,21.75797 8.08616,9.4663 17.90375,20.81145 21.81688,25.21145 39.74193,44.68659 59.36823,77.62943 67.02403,112.5 3.5514,16.1761 2.8636,54.6573 -1.0856,60.73714 -1.8134,2.79183 -7.394,5.64851 -13.9238,7.12759 -18.6671,4.22827 -24.19386,5.90972 -33.78115,10.27741 -15.35415,6.99491 -19.81768,8.6503 -30.83215,11.43468 -23.38978,5.91276 -60.18158,8.86612 -80.88674,6.49295 -5.775,-0.66192 -17.4038,-2.30895 -25.84177,-3.66008 -8.43798,-1.35113 -19.1467,-2.84227 -23.79716,-3.31364 -4.65046,-0.47137 -8.66994,-1.07159 -8.93217,-1.33382 -1.52466,-1.52466 17.2761,-37.91804 25.57642,-49.50931 4.47825,-6.2538 5.06897,-10.17863 1.99468,-13.25292 -4.50006,-4.50006 -8.11588,-1.99685 -17.19133,11.90148 -8.84838,13.5506 -19.40094,35.02898 -25.31326,51.52189 -5.9387,16.56651 -9.3006,23.92694 -14.2735,31.24986 -6.86335,10.10672 -15.48089,16.60745 -26.22191,19.78075 -16.15348,4.77235 -53.64168,2.03983 -77.26569,-5.63191 -8.01736,-2.60358 -11.53911,-1.92012 -13.0188,2.52654 -2.14687,6.45163 3.16621,9.69034 23.28449,14.1936 14.22567,3.18426 27.0824,4.46112 44.71059,4.44043 25.60887,-0.0301 37.96841,-4.34949 51.28941,-17.92464 8.14961,-8.30509 12.26017,-14.56831 17.52581,-26.70385 l 3.40794,-7.85415 4.17315,-0.31434 4.17316,-0.31434 -3.62433,5.04479 c -5.36368,7.46587 -12.30827,20.74901 -15.68473,30.00074 -1.6368,4.48494 -4.31867,15.74366 -5.95972,25.01938 -3.50697,19.82255 -7.2185,31.64875 -16.90064,53.85115 -3.90648,8.95806 -8.00448,19.73031 -9.10667,23.93834 -2.78905,10.64829 -2.61849,26.10372 0.53825,48.77428 1.37851,9.9 2.78825,22.6125 3.13275,28.25 l 0.62637,10.25 H 475.71961 356.56894 Z m 30.86643,-55.58337 c 1.02653,-1.02653 2.19522,-4.06403 2.59708,-6.75 2.72078,-18.1851 13.32722,-38.13082 28.16897,-52.97258 11.285,-11.28499 28.81773,-22.18792 41.64648,-25.89832 8.88035,-2.56843 11.40029,-8.44724 5.50159,-12.83479 -2.62783,-1.95462 -2.91722,-1.96778 -8.58938,-0.39078 -27.21968,7.56774 -56.80244,32.90707 -70.60333,60.47581 -4.12115,8.23241 -8.60622,22.62802 -9.27231,29.76109 -0.50552,5.41347 -0.30644,6.82856 1.19388,8.4864 2.26742,2.50547 6.91356,2.56663 9.35702,0.12317 z m 185.04357,0.21692 c 2.18984,-1.53383 2.31529,-2.12329 1.78864,-8.40508 -1.08549,-12.94772 -8.7268,-31.63374 -18.78854,-45.94541 -13.86609,-19.72292 -39.89047,-38.81577 -60.85058,-44.64321 -5.96299,-1.65785 -6.19065,-1.64958 -8.84007,0.32109 -5.87582,4.37053 -3.37864,10.2618 5.43594,12.82427 13.28844,3.86305 30.38321,14.60341 42.2604,26.55148 13.75125,13.83332 22.93696,30.7217 27.11921,49.86 1.91594,8.76748 3.4708,11.08637 7.43362,11.08637 1.1475,0 3.14612,-0.74228 4.44138,-1.64951 z M 461.34489,341.54453 c -5.88421,-1.69426 -11.51044,-4.96631 -21.55876,-12.53795 -18.08462,-13.62717 -22.31178,-21.88308 -30.12414,-58.83441 -5.46976,-25.87116 -6.44493,-33.64085 -5.84707,-46.58672 0.84723,-18.34572 6.70153,-31.45361 20.0673,-44.93104 7.87745,-7.94327 16.97302,-13.12504 28.68672,-16.34291 9.26872,-2.54621 36.75422,-2.54252 46,0.006 11.51786,3.17501 20.56007,8.19371 27.88315,15.47598 21.30897,21.1902 25.44982,42.22271 16.69819,84.81462 -7.81475,38.03237 -12.17704,49.1402 -23.30564,59.34382 -8.19046,7.50969 -22.85682,17.486 -28.01763,19.05807 -5.88005,1.79116 -24.9558,2.12556 -30.48212,0.53436 z"
       id="path1" />
  </g>
</svg>
